<?xml version="1.0" encoding="utf-8"?>
<!-- Generator: Adobe Illustrator 16.0.0, SVG Export Plug-In . SVG Version: 6.00 Build 0)  -->
<!DOCTYPE svg PUBLIC "-//W3C//DTD SVG 1.0//EN" "http://www.w3.org/TR/2001/REC-SVG-20010904/DTD/svg10.dtd">
<svg version="1.0" id="Layer_1" xmlns="http://www.w3.org/2000/svg" xmlns:xlink="http://www.w3.org/1999/xlink" x="0px" y="0px"
	 width="100px" height="100px" viewBox="0 0 100 100" enable-background="new 0 0 100 100" xml:space="preserve">
<path fill="#FFB74D" d="M30,58.841h32.246c11.648,0,21.087-9.438,21.087-21.084c0-11.645-9.44-21.09-21.087-21.09H30V10h32.246
	C77.575,10,90,22.43,90,37.757c0,15.326-12.425,27.751-27.754,27.751H30V58.841z"/>
<path fill="#263238" d="M70,83.333V90H37.754C22.425,90,10,77.57,10,62.243c0-15.326,12.425-27.751,27.754-27.751H70v6.667H37.754
	c-11.648,0-21.087,9.438-21.087,21.084c0,11.644,9.44,21.09,21.087,21.09H70z"/>
</svg>
